<svg t="1749398020434" class="icon" viewBox="0 0 1024 1024" version="1.1" xmlns="http://www.w3.org/2000/svg" p-id="46605" width="200" height="200"><path d="M512 0c281.6 0 512 230.4 512 512s-230.4 512-512 512S0 793.6 0 512 230.4 0 512 0zM55.808 511.212308c0 116.696615 42.692923 221.971692 113.821538 301.686154L812.898462 169.668923c-79.714462-71.168-185.028923-113.821538-301.686154-113.821538-250.486154 0-455.404308 204.878769-455.404308 455.364923z m912.384 1.575384c0-116.657231-42.692923-221.971692-113.821538-301.686154L211.101538 854.331077c79.714462 71.168 184.989538 113.821538 301.686154 113.821538 250.486154 0 455.404308-204.878769 455.404308-455.364923z" fill="rgba(0,0,0,.1)" p-id="46606"></path></svg>